<svg xmlns="http://www.w3.org/2000/svg" viewBox="0 0 512 512">
  <defs>
    <linearGradient id="g" x1="0" y1="0" x2="1" y2="1">
      <stop offset="0" stop-color="#38bdf8" />
      <stop offset="1" stop-color="#0ea5e9" />
    </linearGradient>
  </defs>
  <rect width="512" height="512" rx="96" fill="#0b1020" />
  <rect x="72" y="72" width="368" height="368" rx="72" fill="url(#g)" opacity="0.12" />
  <path
    d="M256 104c-4.4 0-8 3.6-8 8v120l-80-80c-3.1-3.1-8.2-3.1-11.3 0l-16 16c-3.1 3.1-3.1 8.2 0 11.3l95.3 95.3-95.3 95.3c-3.1 3.1-3.1 8.2 0 11.3l16 16c3.1 3.1 8.2 3.1 11.3 0l80-80v120c0 4.4 3.6 8 8 8h24c4.4 0 8-3.6 8-8V334l80 80c3.1 3.1 8.2 3.1 11.3 0l16-16c3.1-3.1 3.1-8.2 0-11.3L292.7 280l95.3-95.3c3.1-3.1 3.1-8.2 0-11.3l-16-16c-3.1-3.1-8.2-3.1-11.3 0l-80 80V112c0-4.4-3.6-8-8-8h-24z"
    fill="#e2e8f0"
  />
</svg>
